<?xml version="1.0" encoding="utf-8"?>
<svg xmlns="http://www.w3.org/2000/svg">
  <defs>
    <symbol id="chevron-up" viewBox="0 0 24 24" stroke-linecap="round" stroke-linejoin="round">
        <polyline points="18 15 12 9 6 15"></polyline>
    </symbol>
    <symbol id="chevron-right" viewBox="0 0 24 24" stroke-linecap="round" stroke-linejoin="round">
        <polyline points="9 18 15 12 9 6"></polyline>
    </symbol>
    <symbol id="chevron-left" viewBox="0 0 24 24" stroke-linecap="round" stroke-linejoin="round">
        <polyline points="15 18 9 12 15 6"></polyline>
    </symbol>
    <symbol id="chevron-down" viewBox="0 0 24 24" stroke-linecap="round" stroke-linejoin="round">
        <polyline points="6 9 12 15 18 9"></polyline>
    </symbol>
    <symbol id="check" viewBox="0 0 24 24" stroke-linecap="round" stroke-linejoin="round">
        <polyline points="20 6 9 17 4 12"></polyline>
    </symbol>
    <symbol id="copy" viewBox="0 0 24 24" stroke-linecap="round" stroke-linejoin="round">
        <rect x="9" y="9" width="13" height="13" rx="2" ry="2"></rect>
        <path d="M5 15H4a2 2 0 0 1-2-2V4a2 2 0 0 1 2-2h9a2 2 0 0 1 2 2v1"></path>
    </symbol>
    <symbol id="clipboard" viewBox="0 0 24 24" stroke-linecap="round" stroke-linejoin="round">
        <path d="M16 4h2a2 2 0 0 1 2 2v14a2 2 0 0 1-2 2H6a2 2 0 0 1-2-2V6a2 2 0 0 1 2-2h2"></path>
        <rect x="8" y="2" width="8" height="4" rx="1" ry="1"></rect>
    </symbol>
    <symbol id="smartphone" viewBox="0 0 24 24" stroke-linecap="round" stroke-linejoin="round">
        <rect x="5" y="2" width="14" height="20" rx="2" ry="2"></rect>
        <line x1="12" y1="18" x2="12.01" y2="18"></line>
    </symbol>
    <symbol id="sun" viewBox="0 0 24 24" stroke-linecap="round" stroke-linejoin="round">
        <circle cx="12" cy="12" r="5"></circle>
        <line x1="12" y1="1" x2="12" y2="3"></line>
        <line x1="12" y1="21" x2="12" y2="23"></line>
        <line x1="4.22" y1="4.22" x2="5.64" y2="5.64"></line>
        <line x1="18.36" y1="18.36" x2="19.78" y2="19.78"></line>
        <line x1="1" y1="12" x2="3" y2="12"></line>
        <line x1="21" y1="12" x2="23" y2="12"></line>
        <line x1="4.22" y1="19.78" x2="5.64" y2="18.36"></line>
        <line x1="18.36" y1="5.64" x2="19.78" y2="4.22"></line>
    </symbol>
    <symbol id="search" viewBox="0 0 24 24" stroke-linecap="round" stroke-linejoin="round">
        <circle cx="11" cy="11" r="8"></circle>
        <line x1="21" y1="21" x2="16.65" y2="16.65"></line>
    </symbol>
    <symbol id="rss" viewBox="0 0 24 24" stroke-linecap="round" stroke-linejoin="round">
        <path d="M4 11a9 9 0 0 1 9 9"></path>
        <path d="M4 4a16 16 0 0 1 16 16"></path>
        <circle cx="5" cy="19" r="1"></circle>
    </symbol>
    <symbol id="moon" viewBox="0 0 24 24" stroke-linecap="round" stroke-linejoin="round">
        <path d="M21 12.79A9 9 0 1 1 11.21 3 7 7 0 0 0 21 12.79z"></path>
    </symbol>
    <symbol id="edit" viewBox="0 0 24 24" stroke-linecap="round" stroke-linejoin="round">
        <path d="M11 4H4a2 2 0 0 0-2 2v14a2 2 0 0 0 2 2h14a2 2 0 0 0 2-2v-7"></path>
        <path d="M18.5 2.5a2.121 2.121 0 0 1 3 3L12 15l-4 1 1-4 9.5-9.5z"></path>
    </symbol>
    <symbol id="feather" viewBox="0 0 24 24" stroke-linecap="round" stroke-linejoin="round">
        <path d="M20.24 12.24a6 6 0 0 0-8.49-8.49L5 10.5V19h8.5z"></path>
        <line x1="16" y1="8" x2="2" y2="22"></line>
        <line x1="17.5" y1="15" x2="9" y2="15"></line>
    </symbol>
    <symbol id="external-link" viewBox="0 0 24 24" stroke-linecap="round" stroke-linejoin="round">
        <path d="M18 13v6a2 2 0 0 1-2 2H5a2 2 0 0 1-2-2V8a2 2 0 0 1 2-2h6"></path>
        <polyline points="15 3 21 3 21 9"></polyline>
        <line x1="10" y1="14" x2="21" y2="3"></line>
    </symbol>
  </defs>
</svg>
